# xmcd CD database file
#
# Track frame offsets:
#	150
#	4793
#	20107
#	40318
#	59849
#	89248
#	106653
#	129384
#	158249
#	181814
#	205090
#
# Disc length: 3009 seconds
#
# Revision: 8
# Processed by: cddbd v1.5.2PL0 Copyright (c) Steve Scherf et al.
# Submitted via: CDex 1.70beta2
#
DISCID=940bbf0b
DTITLE=SOUND HOLIC - SOUND HOLIC MEETS TOHO ～東方的幻奏小曲集～
DYEAR=2006
DGENRE=東方アレンジ
TTITLE0=Intro
TTITLE1=千年一夜物語
TTITLE2=呪われし紅き宿命
TTITLE3=鴉天狗の夢飛行
TTITLE4=四季映姫
TTITLE5=西行妖 ～ fractures admirablement
TTITLE6=Take The "Luv" Train
TTITLE7=Fly Softly As In A Morning Sunrise
TTITLE8=Charcoal Blossom
TTITLE9=Villa San Lorenzo
TTITLE10=Noite De Carnaval
EXTD=YEAR: 2006
EXTT0=
EXTT1=
EXTT2=
EXTT3=
EXTT4=
EXTT5=
EXTT6=
EXTT7=
EXTT8=
EXTT9=
EXTT10=
PLAYORDER=
